<mxfile host="app.diagrams.net" modified="2021-07-28T15:40:31.205Z" agent="5.0 (Windows NT 10.0; Win64; x64) AppleWebKit/537.36 (KHTML, like Gecko) Chrome/91.0.4472.124 Safari/537.36" etag="3PFr5sJ130boEFOz6EbG" version="14.9.2" type="github">
  <diagram id="kgpKYQtTHZ0yAKxKKP6v" name="Page-1">
    <mxGraphModel dx="1182" dy="675" grid="1" gridSize="10" guides="1" tooltips="1" connect="1" arrows="1" fold="1" page="1" pageScale="1" pageWidth="850" pageHeight="1100" math="0" shadow="0">
      <root>
        <mxCell id="0" />
        <mxCell id="1" parent="0" />
        <mxCell id="3nuBFxr9cyL0pnOWT2aG-1" value="Poskytovatel služby&#xa;ISP" style="shape=umlLifeline;perimeter=lifelinePerimeter;container=1;collapsible=0;recursiveResize=0;rounded=0;shadow=0;strokeWidth=1;fillColor=#f8cecc;strokeColor=#b85450;" parent="1" vertex="1">
          <mxGeometry x="100" y="80" width="120" height="440" as="geometry" />
        </mxCell>
        <mxCell id="3nuBFxr9cyL0pnOWT2aG-2" value="" style="points=[];perimeter=orthogonalPerimeter;rounded=0;shadow=0;strokeWidth=1;fillColor=#f8cecc;strokeColor=#b85450;" parent="3nuBFxr9cyL0pnOWT2aG-1" vertex="1">
          <mxGeometry x="55" y="70" width="10" height="370" as="geometry" />
        </mxCell>
        <mxCell id="3nuBFxr9cyL0pnOWT2aG-5" value="Klient&#xa;(webový klient)" style="shape=umlLifeline;perimeter=lifelinePerimeter;container=1;collapsible=0;recursiveResize=0;rounded=0;shadow=0;strokeWidth=1;fillColor=#d5e8d4;strokeColor=#82b366;" parent="1" vertex="1">
          <mxGeometry x="300" y="80" width="100" height="440" as="geometry" />
        </mxCell>
        <mxCell id="3nuBFxr9cyL0pnOWT2aG-6" value="" style="points=[];perimeter=orthogonalPerimeter;rounded=0;shadow=0;strokeWidth=1;fillColor=#d5e8d4;strokeColor=#82b366;" parent="3nuBFxr9cyL0pnOWT2aG-5" vertex="1">
          <mxGeometry x="45" y="80" width="10" height="360" as="geometry" />
        </mxCell>
        <mxCell id="3e9Lj5prgPbfwFylatxG-1" value="Autorizační server&#xa;IdP" style="shape=umlLifeline;perimeter=lifelinePerimeter;container=1;collapsible=0;recursiveResize=0;rounded=0;shadow=0;strokeWidth=1;fillColor=#dae8fc;strokeColor=#6c8ebf;" vertex="1" parent="1">
          <mxGeometry x="480" y="80" width="120" height="300" as="geometry" />
        </mxCell>
        <mxCell id="3e9Lj5prgPbfwFylatxG-10" value="" style="endArrow=classic;html=1;" edge="1" parent="3e9Lj5prgPbfwFylatxG-1">
          <mxGeometry width="50" height="50" relative="1" as="geometry">
            <mxPoint x="70" y="160" as="sourcePoint" />
            <mxPoint x="70" y="210" as="targetPoint" />
            <Array as="points">
              <mxPoint x="120" y="160" />
              <mxPoint x="120" y="210" />
            </Array>
          </mxGeometry>
        </mxCell>
        <mxCell id="3e9Lj5prgPbfwFylatxG-5" value="" style="endArrow=classic;html=1;" edge="1" parent="1" target="3nuBFxr9cyL0pnOWT2aG-2">
          <mxGeometry width="50" height="50" relative="1" as="geometry">
            <mxPoint x="340" y="179" as="sourcePoint" />
            <mxPoint x="450" y="300" as="targetPoint" />
            <Array as="points">
              <mxPoint x="290" y="179" />
            </Array>
          </mxGeometry>
        </mxCell>
        <mxCell id="3e9Lj5prgPbfwFylatxG-6" value="Uživatel žádá ISP o poskytnutí služby" style="text;html=1;strokeColor=none;fillColor=none;align=center;verticalAlign=middle;whiteSpace=wrap;rounded=0;fontColor=#009900;" vertex="1" parent="1">
          <mxGeometry x="200" y="150" width="120" height="20" as="geometry" />
        </mxCell>
        <mxCell id="3e9Lj5prgPbfwFylatxG-7" value="" style="endArrow=classic;html=1;" edge="1" parent="1">
          <mxGeometry width="50" height="50" relative="1" as="geometry">
            <mxPoint x="170" y="215" as="sourcePoint" />
            <mxPoint x="532" y="215" as="targetPoint" />
          </mxGeometry>
        </mxCell>
        <mxCell id="3e9Lj5prgPbfwFylatxG-8" value="Autorizační požadavek (HTTP POST)" style="text;html=1;strokeColor=none;fillColor=none;align=center;verticalAlign=middle;whiteSpace=wrap;rounded=0;fontColor=#CC0066;" vertex="1" parent="1">
          <mxGeometry x="380" y="180" width="140" height="20" as="geometry" />
        </mxCell>
        <mxCell id="3e9Lj5prgPbfwFylatxG-11" value="Verifikace autorizačního požadavku" style="text;html=1;strokeColor=none;fillColor=none;align=center;verticalAlign=middle;whiteSpace=wrap;rounded=0;fontColor=#3333FF;" vertex="1" parent="1">
          <mxGeometry x="570" y="200" width="40" height="20" as="geometry" />
        </mxCell>
        <mxCell id="3e9Lj5prgPbfwFylatxG-12" value="" style="endArrow=classic;html=1;" edge="1" parent="1" source="3e9Lj5prgPbfwFylatxG-1" target="3nuBFxr9cyL0pnOWT2aG-5">
          <mxGeometry width="50" height="50" relative="1" as="geometry">
            <mxPoint x="400" y="290" as="sourcePoint" />
            <mxPoint x="450" y="240" as="targetPoint" />
            <Array as="points">
              <mxPoint x="470" y="322" />
            </Array>
          </mxGeometry>
        </mxCell>
        <mxCell id="3e9Lj5prgPbfwFylatxG-2" value="" style="points=[];perimeter=orthogonalPerimeter;rounded=0;shadow=0;strokeWidth=1;fillColor=#dae8fc;strokeColor=#6c8ebf;" vertex="1" parent="1">
          <mxGeometry x="535" y="160" width="10" height="360" as="geometry" />
        </mxCell>
        <mxCell id="3e9Lj5prgPbfwFylatxG-13" value="Přesměrování na ISP" style="text;html=1;strokeColor=none;fillColor=none;align=center;verticalAlign=middle;whiteSpace=wrap;rounded=0;fontColor=#3333FF;" vertex="1" parent="1">
          <mxGeometry x="425" y="290" width="40" height="20" as="geometry" />
        </mxCell>
        <mxCell id="3e9Lj5prgPbfwFylatxG-15" value="" style="endArrow=classic;html=1;" edge="1" parent="1">
          <mxGeometry width="50" height="50" relative="1" as="geometry">
            <mxPoint x="350" y="357" as="sourcePoint" />
            <mxPoint x="170" y="357" as="targetPoint" />
          </mxGeometry>
        </mxCell>
        <mxCell id="3e9Lj5prgPbfwFylatxG-16" value="Uživatel se hlásí ke službě" style="text;html=1;strokeColor=none;fillColor=none;align=center;verticalAlign=middle;whiteSpace=wrap;rounded=0;fontColor=#006600;" vertex="1" parent="1">
          <mxGeometry x="210" y="330" width="100" height="20" as="geometry" />
        </mxCell>
        <mxCell id="3e9Lj5prgPbfwFylatxG-17" value="" style="endArrow=classic;html=1;entryX=0.508;entryY=0.7;entryDx=0;entryDy=0;entryPerimeter=0;" edge="1" parent="1">
          <mxGeometry width="50" height="50" relative="1" as="geometry">
            <mxPoint x="550" y="370" as="sourcePoint" />
            <mxPoint x="545" y="420" as="targetPoint" />
            <Array as="points">
              <mxPoint x="604.04" y="370" />
              <mxPoint x="604.04" y="420" />
            </Array>
          </mxGeometry>
        </mxCell>
        <mxCell id="3e9Lj5prgPbfwFylatxG-19" value="Generování SAML tokenu" style="text;html=1;strokeColor=none;fillColor=none;align=center;verticalAlign=middle;whiteSpace=wrap;rounded=0;fontColor=#3333FF;" vertex="1" parent="1">
          <mxGeometry x="560" y="340" width="40" height="20" as="geometry" />
        </mxCell>
        <mxCell id="3e9Lj5prgPbfwFylatxG-20" value="" style="endArrow=classic;html=1;exitX=0.2;exitY=0.825;exitDx=0;exitDy=0;exitPerimeter=0;" edge="1" parent="1" source="3e9Lj5prgPbfwFylatxG-2">
          <mxGeometry width="50" height="50" relative="1" as="geometry">
            <mxPoint x="400" y="240" as="sourcePoint" />
            <mxPoint x="170" y="458" as="targetPoint" />
          </mxGeometry>
        </mxCell>
        <mxCell id="3e9Lj5prgPbfwFylatxG-21" value="IdP zasílá SAML token ISP" style="text;html=1;strokeColor=none;fillColor=none;align=center;verticalAlign=middle;whiteSpace=wrap;rounded=0;fontColor=#3333FF;" vertex="1" parent="1">
          <mxGeometry x="200" y="430" width="120" height="20" as="geometry" />
        </mxCell>
        <mxCell id="3e9Lj5prgPbfwFylatxG-22" value="" style="endArrow=classic;html=1;exitX=1.1;exitY=0.951;exitDx=0;exitDy=0;exitPerimeter=0;entryX=0.47;entryY=0.961;entryDx=0;entryDy=0;entryPerimeter=0;" edge="1" parent="1" source="3nuBFxr9cyL0pnOWT2aG-2" target="3nuBFxr9cyL0pnOWT2aG-5">
          <mxGeometry width="50" height="50" relative="1" as="geometry">
            <mxPoint x="400" y="420" as="sourcePoint" />
            <mxPoint x="450" y="370" as="targetPoint" />
          </mxGeometry>
        </mxCell>
        <mxCell id="3e9Lj5prgPbfwFylatxG-23" value="ISP poskytuje uživateli požadované zdroje" style="text;html=1;strokeColor=none;fillColor=none;align=center;verticalAlign=middle;whiteSpace=wrap;rounded=0;fontColor=#CC0066;" vertex="1" parent="1">
          <mxGeometry x="200" y="470" width="130" height="20" as="geometry" />
        </mxCell>
        <mxCell id="3e9Lj5prgPbfwFylatxG-24" value="UML Sekvenční diagram - SAML protokol" style="text;html=1;strokeColor=none;fillColor=none;align=center;verticalAlign=middle;whiteSpace=wrap;rounded=0;fontSize=25;fontStyle=1;fontColor=#4D4D4D;" vertex="1" parent="1">
          <mxGeometry x="95" y="30" width="510" height="20" as="geometry" />
        </mxCell>
      </root>
    </mxGraphModel>
  </diagram>
</mxfile>
